<svg width="86.968262" height="70.500000" viewBox="0 0 86.9683 70.5" fill="none" xmlns="http://www.w3.org/2000/svg" xmlns:xlink="http://www.w3.org/1999/xlink">
	<desc>
			Created with Pixso.
	</desc>
	<defs/>
	<path id="Vector 5" d="M52.554 0C62.7975 4.82056 84.0078 20.2461 86.9001 43.3845C87.5027 52.4231 84.3694 70.5 67.0155 70.5C60.9899 70.5 48.9387 68.6924 45.3234 54.2307C44.7207 47.6025 48.2153 34.7078 67.0155 36.1538L48.9387 7.23071L52.554 0Z" fill="#F9F9F9" fill-opacity="1.000000" fill-rule="evenodd"/>
	<path id="Vector 6" d="M7.29321 0C17.5367 4.82056 38.7471 20.2461 41.6394 43.3845C42.2419 52.4231 39.1086 70.5 21.7548 70.5C15.7291 70.5 3.67798 68.6924 0.0626221 54.2307C-0.540039 47.6025 2.95459 34.7078 21.7548 36.1538L3.67798 7.23071L7.29321 0Z" fill="#F9F9F9" fill-opacity="1.000000" fill-rule="evenodd"/>
</svg>
